# xmcd
#
# Track frame offsets:
#	150
#	11949
#	22713
#	32478
#	45618
#	57595
#	70248
#	79509
#	93224
#	103924
#	114483
#	128159
#	138170
#	151128
#	162053
#	174492
#	189141
#
# Disc length: 2685 seconds
#
# Revision: 0
# Processed by: cddbd v1.5.2PL0 Copyright (c) Steve Scherf et al.
# Submitted via: EZCDAudioConverter 7.1.5.1
#
DISCID=ca0a7b11
DTITLE=Various Artist - '60s Country - Then and Only Then
DYEAR=2018
DGENRE=Country
TTITLE0=Johnny Cash - Ring of Fire
TTITLE1=Hank Locklin - Please Help Me, I’m Falling
TTITLE2=Eddy Arnold - What’s He Doin’ in My World
TTITLE3=David Houston - Almost Persuaded
TTITLE4=Bobby Bare - The Streets of Baltimore
TTITLE5=Johnny Cash - The One on the Right Is on the Left
TTITLE6=Tammy Wynette - Your Good Girl’s Gonna Go Bad
TTITLE7=Charley Pride - All I Have to Offer You (Is Me)
TTITLE8=Porter Wagoner and Dolly Parton - Just Someone I Used to Know
TTITLE9=Floyd Cramer - San Antonio Rose
TTITLE10=Jimmy Dean - Big Bad John
TTITLE11=Johnny Horton - Honky-Tonk Man
TTITLE12=Jim Reeves - Distant Drums
TTITLE13=Jimmy Dickens - May the Bird of Paradise Fly up Your Nose “Little”
TTITLE14=Skeeter Davis - (I Can’t help You) I’m Falling Too
TTITLE15=Willie Nelson - Bloody Mary Morning
TTITLE16=Johnny Cash - Folsom Prison Blues
EXTD=
EXTT0=
EXTT1=
EXTT2=
EXTT3=
EXTT4=
EXTT5=
EXTT6=
EXTT7=
EXTT8=
EXTT9=
EXTT10=
EXTT11=
EXTT12=
EXTT13=
EXTT14=
EXTT15=
EXTT16=
PLAYORDER=
